<svg id="my-svg" width="100%" xmlns="http://www.w3.org/2000/svg" xmlns:xlink="http://www.w3.org/1999/xlink" class="flowchart" style="max-width: 2170.75px; background-color: transparent;" viewBox="0 0 2170.75 1105.5032958984375" role="graphics-document document" aria-roledescription="flowchart-v2"><style>#my-svg{font-family:"trebuchet ms",verdana,arial,sans-serif;font-size:16px;fill:#333;}@keyframes edge-animation-frame{from{stroke-dashoffset:0;}}@keyframes dash{to{stroke-dashoffset:0;}}#my-svg .edge-animation-slow{stroke-dasharray:9,5!important;stroke-dashoffset:900;animation:dash 50s linear infinite;stroke-linecap:round;}#my-svg .edge-animation-fast{stroke-dasharray:9,5!important;stroke-dashoffset:900;animation:dash 20s linear infinite;stroke-linecap:round;}#my-svg .error-icon{fill:#552222;}#my-svg .error-text{fill:#552222;stroke:#552222;}#my-svg .edge-thickness-normal{stroke-width:1px;}#my-svg .edge-thickness-thick{stroke-width:3.5px;}#my-svg .edge-pattern-solid{stroke-dasharray:0;}#my-svg .edge-thickness-invisible{stroke-width:0;fill:none;}#my-svg .edge-pattern-dashed{stroke-dasharray:3;}#my-svg .edge-pattern-dotted{stroke-dasharray:2;}#my-svg .marker{fill:#333333;stroke:#333333;}#my-svg .marker.cross{stroke:#333333;}#my-svg svg{font-family:"trebuchet ms",verdana,arial,sans-serif;font-size:16px;}#my-svg p{margin:0;}#my-svg .label{font-family:"trebuchet ms",verdana,arial,sans-serif;color:#333;}#my-svg .cluster-label text{fill:#333;}#my-svg .cluster-label span{color:#333;}#my-svg .cluster-label span p{background-color:transparent;}#my-svg .label text,#my-svg span{fill:#333;color:#333;}#my-svg .node rect,#my-svg .node circle,#my-svg .node ellipse,#my-svg .node polygon,#my-svg .node path{fill:#ECECFF;stroke:#9370DB;stroke-width:1px;}#my-svg .rough-node .label text,#my-svg .node .label text,#my-svg .image-shape .label,#my-svg .icon-shape .label{text-anchor:middle;}#my-svg .node .katex path{fill:#000;stroke:#000;stroke-width:1px;}#my-svg .rough-node .label,#my-svg .node .label,#my-svg .image-shape .label,#my-svg .icon-shape .label{text-align:center;}#my-svg .node.clickable{cursor:pointer;}#my-svg .root .anchor path{fill:#333333!important;stroke-width:0;stroke:#333333;}#my-svg .arrowheadPath{fill:#333333;}#my-svg .edgePath .path{stroke:#333333;stroke-width:2.0px;}#my-svg .flowchart-link{stroke:#333333;fill:none;}#my-svg .edgeLabel{background-color:rgba(232,232,232, 0.8);text-align:center;}#my-svg .edgeLabel p{background-color:rgba(232,232,232, 0.8);}#my-svg .edgeLabel rect{opacity:0.5;background-color:rgba(232,232,232, 0.8);fill:rgba(232,232,232, 0.8);}#my-svg .labelBkg{background-color:rgba(232, 232, 232, 0.5);}#my-svg .cluster rect{fill:#ffffde;stroke:#aaaa33;stroke-width:1px;}#my-svg .cluster text{fill:#333;}#my-svg .cluster span{color:#333;}#my-svg div.mermaidTooltip{position:absolute;text-align:center;max-width:200px;padding:2px;font-family:"trebuchet ms",verdana,arial,sans-serif;font-size:12px;background:hsl(80, 100%, 96.2745098039%);border:1px solid #aaaa33;border-radius:2px;pointer-events:none;z-index:100;}#my-svg .flowchartTitleText{text-anchor:middle;font-size:18px;fill:#333;}#my-svg rect.text{fill:none;stroke-width:0;}#my-svg .icon-shape,#my-svg .image-shape{background-color:rgba(232,232,232, 0.8);text-align:center;}#my-svg .icon-shape p,#my-svg .image-shape p{background-color:rgba(232,232,232, 0.8);padding:2px;}#my-svg .icon-shape rect,#my-svg .image-shape rect{opacity:0.5;background-color:rgba(232,232,232, 0.8);fill:rgba(232,232,232, 0.8);}#my-svg .label-icon{display:inline-block;height:1em;overflow:visible;vertical-align:-0.125em;}#my-svg .node .label-icon path{fill:currentColor;stroke:revert;stroke-width:revert;}#my-svg :root{--mermaid-font-family:"trebuchet ms",verdana,arial,sans-serif;}#my-svg .clientStyle&gt;*{fill:#e1f5ff!important;stroke:#01579b!important;stroke-width:2px!important;}#my-svg .clientStyle span{fill:#e1f5ff!important;stroke:#01579b!important;stroke-width:2px!important;}#my-svg .apiStyle&gt;*{fill:#fff3e0!important;stroke:#e65100!important;stroke-width:2px!important;}#my-svg .apiStyle span{fill:#fff3e0!important;stroke:#e65100!important;stroke-width:2px!important;}#my-svg .storageStyle&gt;*{fill:#f3e5f5!important;stroke:#4a148c!important;stroke-width:2px!important;}#my-svg .storageStyle span{fill:#f3e5f5!important;stroke:#4a148c!important;stroke-width:2px!important;}#my-svg .llmStyle&gt;*{fill:#e8f5e9!important;stroke:#1b5e20!important;stroke-width:2px!important;}#my-svg .llmStyle span{fill:#e8f5e9!important;stroke:#1b5e20!important;stroke-width:2px!important;}#my-svg .externalStyle&gt;*{fill:#fce4ec!important;stroke:#880e4f!important;stroke-width:2px!important;}#my-svg .externalStyle span{fill:#fce4ec!important;stroke:#880e4f!important;stroke-width:2px!important;}</style><g><marker id="my-svg_flowchart-v2-pointEnd" class="marker flowchart-v2" viewBox="0 0 10 10" refX="5" refY="5" markerUnits="userSpaceOnUse" markerWidth="8" markerHeight="8" orient="auto"><path d="M 0 0 L 10 5 L 0 10 z" class="arrowMarkerPath" style="stroke-width: 1; stroke-dasharray: 1, 0;"/></marker><marker id="my-svg_flowchart-v2-pointStart" class="marker flowchart-v2" viewBox="0 0 10 10" refX="4.5" refY="5" markerUnits="userSpaceOnUse" markerWidth="8" markerHeight="8" orient="auto"><path d="M 0 5 L 10 10 L 10 0 z" class="arrowMarkerPath" style="stroke-width: 1; stroke-dasharray: 1, 0;"/></marker><marker id="my-svg_flowchart-v2-circleEnd" class="marker flowchart-v2" viewBox="0 0 10 10" refX="11" refY="5" markerUnits="userSpaceOnUse" markerWidth="11" markerHeight="11" orient="auto"><circle cx="5" cy="5" r="5" class="arrowMarkerPath" style="stroke-width: 1; stroke-dasharray: 1, 0;"/></marker><marker id="my-svg_flowchart-v2-circleStart" class="marker flowchart-v2" viewBox="0 0 10 10" refX="-1" refY="5" markerUnits="userSpaceOnUse" markerWidth="11" markerHeight="11" orient="auto"><circle cx="5" cy="5" r="5" class="arrowMarkerPath" style="stroke-width: 1; stroke-dasharray: 1, 0;"/></marker><marker id="my-svg_flowchart-v2-crossEnd" class="marker cross flowchart-v2" viewBox="0 0 11 11" refX="12" refY="5.2" markerUnits="userSpaceOnUse" markerWidth="11" markerHeight="11" orient="auto"><path d="M 1,1 l 9,9 M 10,1 l -9,9" class="arrowMarkerPath" style="stroke-width: 2; stroke-dasharray: 1, 0;"/></marker><marker id="my-svg_flowchart-v2-crossStart" class="marker cross flowchart-v2" viewBox="0 0 11 11" refX="-1" refY="5.2" markerUnits="userSpaceOnUse" markerWidth="11" markerHeight="11" orient="auto"><path d="M 1,1 l 9,9 M 10,1 l -9,9" class="arrowMarkerPath" style="stroke-width: 2; stroke-dasharray: 1, 0;"/></marker><g class="root"><g class="clusters"><g class="cluster" id="EXTERNAL" data-look="classic"><rect style="" x="59.64453125" y="744" width="612.01953125" height="176.5033416748047"/><g class="cluster-label" transform="translate(304.287109375, 744)"><foreignObject width="122.734375" height="24"><div xmlns="http://www.w3.org/1999/xhtml" style="display: table-cell; white-space: nowrap; line-height: 1.5; max-width: 200px; text-align: center;"><span class="nodeLabel"><p>External Services</p></span></div></foreignObject></g></g><g class="cluster" id="LLM" data-look="classic"><rect style="" x="1683.44921875" y="744" width="414.25390625" height="353.5033416748047"/><g class="cluster-label" transform="translate(1854.716796875, 744)"><foreignObject width="71.71875" height="24"><div xmlns="http://www.w3.org/1999/xhtml" style="display: table-cell; white-space: nowrap; line-height: 1.5; max-width: 200px; text-align: center;"><span class="nodeLabel"><p>LLM Layer</p></span></div></foreignObject></g></g><g class="cluster" id="STORAGE" data-look="classic"><rect style="" x="713.01953125" y="744" width="950.4296875" height="176.5033416748047"/><g class="cluster-label" transform="translate(1120.25, 744)"><foreignObject width="135.96875" height="24"><div xmlns="http://www.w3.org/1999/xhtml" style="display: table-cell; white-space: nowrap; line-height: 1.5; max-width: 200px; text-align: center;"><span class="nodeLabel"><p>Data Storage Layer</p></span></div></foreignObject></g></g><g class="cluster" id="PIPELINE" data-look="classic"><rect style="" x="928.0546875" y="542" width="950.07421875" height="128"/><g class="cluster-label" transform="translate(1323.333984375, 542)"><foreignObject width="159.515625" height="24"><div xmlns="http://www.w3.org/1999/xhtml" style="display: table-cell; white-space: nowrap; line-height: 1.5; max-width: 200px; text-align: center;"><span class="nodeLabel"><p>Haystack 2.x Pipelines</p></span></div></foreignObject></g></g><g class="cluster" id="API" data-look="classic"><rect style="" x="8" y="210" width="2154.75" height="282"/><g class="cluster-label" transform="translate(1026.828125, 210)"><foreignObject width="117.09375" height="24"><div xmlns="http://www.w3.org/1999/xhtml" style="display: table-cell; white-space: nowrap; line-height: 1.5; max-width: 200px; text-align: center;"><span class="nodeLabel"><p>FastAPI Backend</p></span></div></foreignObject></g></g><g class="cluster" id="CLIENT" data-look="classic"><rect style="" x="163.1328125" y="8" width="469.4375" height="128"/><g class="cluster-label" transform="translate(354.4375, 8)"><foreignObject width="86.828125" height="24"><div xmlns="http://www.w3.org/1999/xhtml" style="display: table-cell; white-space: nowrap; line-height: 1.5; max-width: 200px; text-align: center;"><span class="nodeLabel"><p>Client Layer</p></span></div></foreignObject></g></g><g class="cluster" id="BUSINESS" data-look="classic"><rect style="" x="526.53125" y="339" width="1616.21875" height="128"/><g class="cluster-label" transform="translate(1284, 339)"><foreignObject width="101.28125" height="24"><div xmlns="http://www.w3.org/1999/xhtml" style="display: table-cell; white-space: nowrap; line-height: 1.5; max-width: 200px; text-align: center;"><span class="nodeLabel"><p>Business Logic</p></span></div></foreignObject></g></g></g><g class="edgePaths"><path d="M283.391,111L283.391,115.167C283.391,119.333,283.391,127.667,283.391,138C283.391,148.333,283.391,160.667,283.391,173C283.391,185.333,283.391,197.667,291.767,207.719C300.144,217.772,316.897,225.544,325.273,229.431L333.65,233.317" id="L_WEB_ROUTES_0" class="edge-thickness-normal edge-pattern-solid edge-thickness-normal edge-pattern-solid flowchart-link" style=";" data-edge="true" data-et="edge" data-id="L_WEB_ROUTES_0" data-points="W3sieCI6MjgzLjM5MDYyNSwieSI6MTExfSx7IngiOjI4My4zOTA2MjUsInkiOjEzNn0seyJ4IjoyODMuMzkwNjI1LCJ5IjoxNzN9LHsieCI6MjgzLjM5MDYyNSwieSI6MjEwfSx7IngiOjMzNy4yNzgwOTQ5NTE5MjMxLCJ5IjoyMzV9XQ==" marker-end="url(#my-svg_flowchart-v2-pointEnd)"/><path d="M508.109,111L508.109,115.167C508.109,119.333,508.109,127.667,508.109,138C508.109,148.333,508.109,160.667,508.109,173C508.109,185.333,508.109,197.667,499.69,207.721C491.27,217.774,474.43,225.549,466.01,229.436L457.591,233.323" id="L_ADMIN_ROUTES_0" class="edge-thickness-normal edge-pattern-solid edge-thickness-normal edge-pattern-solid flowchart-link" style=";" data-edge="true" data-et="edge" data-id="L_ADMIN_ROUTES_0" data-points="W3sieCI6NTA4LjEwOTM3NSwieSI6MTExfSx7IngiOjUwOC4xMDkzNzUsInkiOjEzNn0seyJ4Ijo1MDguMTA5Mzc1LCJ5IjoxNzN9LHsieCI6NTA4LjEwOTM3NSwieSI6MjEwfSx7IngiOjQ1My45NTg5ODQzNzUsInkiOjIzNX1d" marker-end="url(#my-svg_flowchart-v2-pointEnd)"/><path d="M327.891,275.047L294.259,281.539C260.628,288.031,193.365,301.016,159.733,311.674C126.102,322.333,126.102,330.667,126.102,338.333C126.102,346,126.102,353,126.102,356.5L126.102,360" id="L_ROUTES_AUTH_0" class="edge-thickness-normal edge-pattern-solid edge-thickness-normal edge-pattern-solid flowchart-link" style=";" data-edge="true" data-et="edge" data-id="L_ROUTES_AUTH_0" data-points="W3sieCI6MzI3Ljg5MDYyNSwieSI6Mjc1LjA0Njc1MTc0MDEzOTJ9LHsieCI6MTI2LjEwMTU2MjUsInkiOjMxNH0seyJ4IjoxMjYuMTAxNTYyNSwieSI6MzM5fSx7IngiOjEyNi4xMDE1NjI1LCJ5IjozNjR9XQ==" marker-end="url(#my-svg_flowchart-v2-pointEnd)"/><path d="M385.035,289L383.424,293.167C381.813,297.333,378.59,305.667,376.979,314C375.367,322.333,375.367,330.667,375.367,338.333C375.367,346,375.367,353,375.367,356.5L375.367,360" id="L_ROUTES_MIDDLEWARE_0" class="edge-thickness-normal edge-pattern-solid edge-thickness-normal edge-pattern-solid flowchart-link" style=";" data-edge="true" data-et="edge" data-id="L_ROUTES_MIDDLEWARE_0" data-points="W3sieCI6Mzg1LjAzNTE1NjI1LCJ5IjoyODl9LHsieCI6Mzc1LjM2NzE4NzUsInkiOjMxNH0seyJ4IjozNzUuMzY3MTg3NSwieSI6MzM5fSx7IngiOjM3NS4zNjcxODc1LCJ5IjozNjR9XQ==" marker-end="url(#my-svg_flowchart-v2-pointEnd)"/><path d="M643.246,430L638.679,436.167C634.112,442.333,624.978,454.667,620.411,465C615.844,475.333,615.844,483.667,615.844,492C615.844,500.333,615.844,508.667,615.844,517C615.844,525.333,615.844,533.667,615.844,548.5C615.844,563.333,615.844,584.667,615.844,606C615.844,627.333,615.844,648.667,615.844,665.5C615.844,682.333,615.844,694.667,643.899,707C671.954,719.333,728.065,731.667,757.393,741.542C786.721,751.417,789.266,758.833,790.539,762.542L791.812,766.25" id="L_CURRICULUM_POSTGRES_0" class="edge-thickness-normal edge-pattern-solid edge-thickness-normal edge-pattern-solid flowchart-link" style=";" data-edge="true" data-et="edge" data-id="L_CURRICULUM_POSTGRES_0" data-points="W3sieCI6NjQzLjI0NTk3MTY3OTY4NzUsInkiOjQzMH0seyJ4Ijo2MTUuODQzNzUsInkiOjQ2N30seyJ4Ijo2MTUuODQzNzUsInkiOjQ5Mn0seyJ4Ijo2MTUuODQzNzUsInkiOjUxN30seyJ4Ijo2MTUuODQzNzUsInkiOjU0Mn0seyJ4Ijo2MTUuODQzNzUsInkiOjYwNn0seyJ4Ijo2MTUuODQzNzUsInkiOjY3MH0seyJ4Ijo2MTUuODQzNzUsInkiOjcwN30seyJ4Ijo3ODQuMTc1NzgxMjUsInkiOjc0NH0seyJ4Ijo3OTMuMTA5OTczNjU0MDAzLCJ5Ijo3NzAuMDMzMzU2Mjk4MjU3fV0=" marker-end="url(#my-svg_flowchart-v2-pointEnd)"/><path d="M903.219,430L903.219,436.167C903.219,442.333,903.219,454.667,903.219,465C903.219,475.333,903.219,483.667,903.219,492C903.219,500.333,903.219,508.667,903.219,517C903.219,525.333,903.219,533.667,903.219,548.5C903.219,563.333,903.219,584.667,903.219,606C903.219,627.333,903.219,648.667,903.219,665.5C903.219,682.333,903.219,694.667,910.236,707C917.253,719.333,931.286,731.667,928.409,744.551C925.532,757.435,905.743,770.87,895.848,777.588L885.954,784.305" id="L_PROGRESS_POSTGRES_0" class="edge-thickness-normal edge-pattern-solid edge-thickness-normal edge-pattern-solid flowchart-link" style=";" data-edge="true" data-et="edge" data-id="L_PROGRESS_POSTGRES_0" data-points="W3sieCI6OTAzLjIxODc1LCJ5Ijo0MzB9LHsieCI6OTAzLjIxODc1LCJ5Ijo0Njd9LHsieCI6OTAzLjIxODc1LCJ5Ijo0OTJ9LHsieCI6OTAzLjIxODc1LCJ5Ijo1MTd9LHsieCI6OTAzLjIxODc1LCJ5Ijo1NDJ9LHsieCI6OTAzLjIxODc1LCJ5Ijo2MDZ9LHsieCI6OTAzLjIxODc1LCJ5Ijo2NzB9LHsieCI6OTAzLjIxODc1LCJ5Ijo3MDd9LHsieCI6OTQ1LjMyMDMxMjUsInkiOjc0NH0seyJ4Ijo4ODIuNjQ0NTMxMjUsInkiOjc4Ni41NTE4NTQzOTE1MDUyfV0=" marker-end="url(#my-svg_flowchart-v2-pointEnd)"/><path d="M1716.833,430L1711.462,436.167C1706.092,442.333,1695.351,454.667,1689.98,465C1684.609,475.333,1684.609,483.667,1684.609,492C1684.609,500.333,1684.609,508.667,1684.609,517C1684.609,525.333,1684.609,533.667,1684.609,541.333C1684.609,549,1684.609,556,1684.609,559.5L1684.609,563" id="L_QUIZ_RETRIEVAL_0" class="edge-thickness-normal edge-pattern-solid edge-thickness-normal edge-pattern-solid flowchart-link" style=";" data-edge="true" data-et="edge" data-id="L_QUIZ_RETRIEVAL_0" data-points="W3sieCI6MTcxNi44MzMwNjg4NDc2NTYyLCJ5Ijo0MzB9LHsieCI6MTY4NC42MDkzNzUsInkiOjQ2N30seyJ4IjoxNjg0LjYwOTM3NSwieSI6NDkyfSx7IngiOjE2ODQuNjA5Mzc1LCJ5Ijo1MTd9LHsieCI6MTY4NC42MDkzNzUsInkiOjU0Mn0seyJ4IjoxNjg0LjYwOTM3NSwieSI6NTY3fV0=" marker-end="url(#my-svg_flowchart-v2-pointEnd)"/><path d="M1810.713,430L1826.785,436.167C1842.856,442.333,1874.998,454.667,1891.069,465C1907.141,475.333,1907.141,483.667,1907.141,492C1907.141,500.333,1907.141,508.667,1907.141,517C1907.141,525.333,1907.141,533.667,1907.141,548.5C1907.141,563.333,1907.141,584.667,1907.141,606C1907.141,627.333,1907.141,648.667,1907.141,665.5C1907.141,682.333,1907.141,694.667,1928.499,707C1949.857,719.333,1992.573,731.667,2004.628,745.614C2016.683,759.562,1998.077,775.124,1988.774,782.905L1979.471,790.685" id="L_QUIZ_ROUTER_0" class="edge-thickness-normal edge-pattern-solid edge-thickness-normal edge-pattern-solid flowchart-link" style=";" data-edge="true" data-et="edge" data-id="L_QUIZ_ROUTER_0" data-points="W3sieCI6MTgxMC43MTM0Mzk5NDE0MDYyLCJ5Ijo0MzB9LHsieCI6MTkwNy4xNDA2MjUsInkiOjQ2N30seyJ4IjoxOTA3LjE0MDYyNSwieSI6NDkyfSx7IngiOjE5MDcuMTQwNjI1LCJ5Ijo1MTd9LHsieCI6MTkwNy4xNDA2MjUsInkiOjU0Mn0seyJ4IjoxOTA3LjE0MDYyNSwieSI6NjA2fSx7IngiOjE5MDcuMTQwNjI1LCJ5Ijo2NzB9LHsieCI6MTkwNy4xNDA2MjUsInkiOjcwN30seyJ4IjoyMDM1LjI4OTA2MjUsInkiOjc0NH0seyJ4IjoxOTc2LjQwMjY4OTIyOTIwMzEsInkiOjc5My4yNTE2NzA4Mzc0MDIzfV0=" marker-end="url(#my-svg_flowchart-v2-pointEnd)"/><path d="M2032.656,430L2032.656,436.167C2032.656,442.333,2032.656,454.667,2032.656,465C2032.656,475.333,2032.656,483.667,2032.656,492C2032.656,500.333,2032.656,508.667,2032.656,517C2032.656,525.333,2032.656,533.667,2032.656,548.5C2032.656,563.333,2032.656,584.667,2032.656,606C2032.656,627.333,2032.656,648.667,2032.656,665.5C2032.656,682.333,2032.656,694.667,1962.296,707C1891.936,719.333,1751.216,731.667,1679.344,742.052C1607.471,752.437,1604.446,760.875,1602.934,765.093L1601.421,769.312" id="L_COST_REDIS_0" class="edge-thickness-normal edge-pattern-solid edge-thickness-normal edge-pattern-solid flowchart-link" style=";" data-edge="true" data-et="edge" data-id="L_COST_REDIS_0" data-points="W3sieCI6MjAzMi42NTYyNSwieSI6NDMwfSx7IngiOjIwMzIuNjU2MjUsInkiOjQ2N30seyJ4IjoyMDMyLjY1NjI1LCJ5Ijo0OTJ9LHsieCI6MjAzMi42NTYyNSwieSI6NTE3fSx7IngiOjIwMzIuNjU2MjUsInkiOjU0Mn0seyJ4IjoyMDMyLjY1NjI1LCJ5Ijo2MDZ9LHsieCI6MjAzMi42NTYyNSwieSI6NjcwfSx7IngiOjIwMzIuNjU2MjUsInkiOjcwN30seyJ4IjoxNjEwLjQ5NjA5Mzc1LCJ5Ijo3NDR9LHsieCI6MTYwMC4wNzEzMzQ1NzA2MjksInkiOjc3My4wNzcyNDc4NzM3NTN9XQ==" marker-end="url(#my-svg_flowchart-v2-pointEnd)"/><path d="M1025.799,645L1016.621,649.167C1007.444,653.333,989.089,661.667,979.912,672C970.734,682.333,970.734,694.667,973.792,707C976.849,719.333,982.964,731.667,1006.59,747.066C1030.216,762.465,1071.354,780.929,1091.922,790.162L1112.491,799.394" id="L_INDEX_QDRANT_0" class="edge-thickness-normal edge-pattern-solid edge-thickness-normal edge-pattern-solid flowchart-link" style=";" data-edge="true" data-et="edge" data-id="L_INDEX_QDRANT_0" data-points="W3sieCI6MTAyNS43OTg3NjcwODk4NDM4LCJ5Ijo2NDV9LHsieCI6OTcwLjczNDM3NSwieSI6NjcwfSx7IngiOjk3MC43MzQzNzUsInkiOjcwN30seyJ4Ijo5ODkuMDc4MTI1LCJ5Ijo3NDR9LHsieCI6MTExNi4xNDA2MjUsInkiOjgwMS4wMzIwMzI5OTk1NDM1fV0=" marker-end="url(#my-svg_flowchart-v2-pointEnd)"/><path d="M1101.585,645L1100.504,649.167C1099.424,653.333,1097.263,661.667,1096.182,672C1095.102,682.333,1095.102,694.667,995.396,707C895.691,719.333,696.281,731.667,599.884,745.431C503.487,759.195,510.103,774.389,513.411,781.987L516.719,789.584" id="L_INDEX_S3_0" class="edge-thickness-normal edge-pattern-solid edge-thickness-normal edge-pattern-solid flowchart-link" style=";" data-edge="true" data-et="edge" data-id="L_INDEX_S3_0" data-points="W3sieCI6MTEwMS41ODUwMjE5NzI2NTYyLCJ5Ijo2NDV9LHsieCI6MTA5NS4xMDE1NjI1LCJ5Ijo2NzB9LHsieCI6MTA5NS4xMDE1NjI1LCJ5Ijo3MDd9LHsieCI6NDk2Ljg3MTA5Mzc1LCJ5Ijo3NDR9LHsieCI6NTE4LjMxNTgzMTQxNzE0MTcsInkiOjc5My4yNTE2NzA4Mzc0MDIzfV0=" marker-end="url(#my-svg_flowchart-v2-pointEnd)"/><path d="M1591.531,619.455L1533.257,627.879C1474.982,636.304,1358.432,653.152,1300.158,667.743C1241.883,682.333,1241.883,694.667,1241.883,707C1241.883,719.333,1241.883,731.667,1239.565,741.829C1237.246,751.991,1232.61,759.981,1230.292,763.976L1227.973,767.972" id="L_RETRIEVAL_QDRANT_0" class="edge-thickness-normal edge-pattern-solid edge-thickness-normal edge-pattern-solid flowchart-link" style=";" data-edge="true" data-et="edge" data-id="L_RETRIEVAL_QDRANT_0" data-points="W3sieCI6MTU5MS41MzEyNSwieSI6NjE5LjQ1NTI1NzcyNDY4MTl9LHsieCI6MTI0MS44ODI4MTI1LCJ5Ijo2NzB9LHsieCI6MTI0MS44ODI4MTI1LCJ5Ijo3MDd9LHsieCI6MTI0MS44ODI4MTI1LCJ5Ijo3NDR9LHsieCI6MTIyNS45NjU5NzUwNDMzMTI3LCJ5Ijo3NzEuNDMxNTI0NjA0Njc1OH1d" marker-end="url(#my-svg_flowchart-v2-pointEnd)"/><path d="M1591.531,624.207L1552.513,631.839C1513.495,639.471,1435.458,654.736,1396.44,668.534C1357.422,682.333,1357.422,694.667,1357.422,707C1357.422,719.333,1357.422,731.667,1385.006,748.892C1412.589,766.118,1467.757,788.236,1495.34,799.295L1522.924,810.354" id="L_RETRIEVAL_REDIS_0" class="edge-thickness-normal edge-pattern-solid edge-thickness-normal edge-pattern-solid flowchart-link" style=";" data-edge="true" data-et="edge" data-id="L_RETRIEVAL_REDIS_0" data-points="W3sieCI6MTU5MS41MzEyNSwieSI6NjI0LjIwNjY4NTc2ODg2MzR9LHsieCI6MTM1Ny40MjE4NzUsInkiOjY3MH0seyJ4IjoxMzU3LjQyMTg3NSwieSI6NzA3fSx7IngiOjEzNTcuNDIxODc1LCJ5Ijo3NDR9LHsieCI6MTUyNi42MzY3MTg3NSwieSI6ODExLjg0MjE3MDEzMDE3Mzl9XQ==" marker-end="url(#my-svg_flowchart-v2-pointEnd)"/><path d="M1611.801,645L1604.022,649.167C1596.244,653.333,1580.686,661.667,1572.908,672C1565.129,682.333,1565.129,694.667,1597.239,707C1629.349,719.333,1693.569,731.667,1742.112,746.266C1790.655,760.865,1823.521,777.729,1839.954,786.162L1856.387,794.594" id="L_RETRIEVAL_ROUTER_0" class="edge-thickness-normal edge-pattern-solid edge-thickness-normal edge-pattern-solid flowchart-link" style=";" data-edge="true" data-et="edge" data-id="L_RETRIEVAL_ROUTER_0" data-points="W3sieCI6MTYxMS44MDA5NjQzNTU0Njg4LCJ5Ijo2NDV9LHsieCI6MTU2NS4xMjg5MDYyNSwieSI6NjcwfSx7IngiOjE1NjUuMTI4OTA2MjUsInkiOjcwN30seyJ4IjoxNzU3Ljc4OTA2MjUsInkiOjc0NH0seyJ4IjoxODU5Ljk0NTMxMjUsInkiOjc5Ni40MjAyMjU2Njg2NTk3fV0=" marker-end="url(#my-svg_flowchart-v2-pointEnd)"/><path d="M1255.25,802.497L1278.04,792.747C1300.831,782.998,1346.411,763.499,1419.893,747.583C1493.374,731.667,1594.755,719.333,1645.446,707C1696.137,694.667,1696.137,682.333,1695.504,672.656C1694.872,662.979,1693.608,655.958,1692.975,652.447L1692.343,648.937" id="L_QDRANT_RETRIEVAL_0" class="edge-thickness-normal edge-pattern-dotted edge-thickness-normal edge-pattern-solid flowchart-link" style=";" data-edge="true" data-et="edge" data-id="L_QDRANT_RETRIEVAL_0" data-points="W3sieCI6MTI1NS4yNSwieSI6ODAyLjQ5Njg5NDQ0MzE5Njh9LHsieCI6MTM5MS45OTIxODc1LCJ5Ijo3NDR9LHsieCI6MTY5Ni4xMzY3MTg3NSwieSI6NzA3fSx7IngiOjE2OTYuMTM2NzE4NzUsInkiOjY3MH0seyJ4IjoxNjkxLjYzMzg1MDA5NzY1NjIsInkiOjY0NX1d" marker-end="url(#my-svg_flowchart-v2-pointEnd)"/><path d="M1526.637,795.298L1514.859,786.749C1503.081,778.199,1479.525,761.099,1525.767,746.383C1572.009,731.667,1688.049,719.333,1746.07,707C1804.09,694.667,1804.09,682.333,1796.899,672.315C1789.708,662.296,1775.326,654.592,1768.135,650.741L1760.944,646.889" id="L_REDIS_RETRIEVAL_0" class="edge-thickness-normal edge-pattern-dotted edge-thickness-normal edge-pattern-solid flowchart-link" style=";" data-edge="true" data-et="edge" data-id="L_REDIS_RETRIEVAL_0" data-points="W3sieCI6MTUyNi42MzY3MTg3NSwieSI6Nzk1LjI5ODQyODA3OTUzNzV9LHsieCI6MTQ1NS45Njg3NSwieSI6NzQ0fSx7IngiOjE4MDQuMDg5ODQzNzUsInkiOjcwN30seyJ4IjoxODA0LjA4OTg0Mzc1LCJ5Ijo2NzB9LHsieCI6MTc1Ny40MTc3ODU2NDQ1MzEyLCJ5Ijo2NDV9XQ==" marker-end="url(#my-svg_flowchart-v2-pointEnd)"/><path d="M1868.946,871.252L1856.143,879.46C1843.34,887.669,1817.735,904.086,1804.932,918.461C1792.129,932.837,1792.129,945.17,1792.129,956.837C1792.129,968.503,1792.129,979.503,1792.129,985.003L1792.129,990.503" id="L_ROUTER_GPT4_0" class="edge-thickness-normal edge-pattern-solid edge-thickness-normal edge-pattern-solid flowchart-link" style=";" data-edge="true" data-et="edge" data-id="L_ROUTER_GPT4_0" data-points="W3sieCI6MTg2OC45NDU4NDQ0NjA1Mzg5LCJ5Ijo4NzEuMjUxNjcwODM3NDAyM30seyJ4IjoxNzkyLjEyODkwNjI1LCJ5Ijo5MjAuNTAzMzQxNjc0ODA0N30seyJ4IjoxNzkyLjEyODkwNjI1LCJ5Ijo5NTcuNTAzMzQxNjc0ODA0N30seyJ4IjoxNzkyLjEyODkwNjI1LCJ5Ijo5OTQuNTAzMzQxNjc0ODA0N31d" marker-end="url(#my-svg_flowchart-v2-pointEnd)"/><path d="M1958.581,871.252L1964.644,879.46C1970.708,887.669,1982.834,904.086,1988.898,918.461C1994.961,932.837,1994.961,945.17,1994.961,956.837C1994.961,968.503,1994.961,979.503,1994.961,985.003L1994.961,990.503" id="L_ROUTER_GPT4FULL_0" class="edge-thickness-normal edge-pattern-solid edge-thickness-normal edge-pattern-solid flowchart-link" style=";" data-edge="true" data-et="edge" data-id="L_ROUTER_GPT4FULL_0" data-points="W3sieCI6MTk1OC41ODA5NjU3NDE0MDksInkiOjg3MS4yNTE2NzA4Mzc0MDIzfSx7IngiOjE5OTQuOTYwOTM3NSwieSI6OTIwLjUwMzM0MTY3NDgwNDd9LHsieCI6MTk5NC45NjA5Mzc1LCJ5Ijo5NTcuNTAzMzQxNjc0ODA0N30seyJ4IjoxOTk0Ljk2MDkzNzUsInkiOjk5NC41MDMzNDE2NzQ4MDQ3fV0=" marker-end="url(#my-svg_flowchart-v2-pointEnd)"/><path d="M1148.416,645L1152.339,649.167C1156.262,653.333,1164.108,661.667,1168.03,672C1171.953,682.333,1171.953,694.667,1075.541,707C979.129,719.333,786.305,731.667,684.848,745.485C583.391,759.304,573.301,774.608,568.256,782.26L563.211,789.912" id="L_INDEX_S3_2" class="edge-thickness-normal edge-pattern-solid edge-thickness-normal edge-pattern-solid flowchart-link" style=";" data-edge="true" data-et="edge" data-id="L_INDEX_S3_2" data-points="W3sieCI6MTE0OC40MTY0NDI4NzEwOTM4LCJ5Ijo2NDV9LHsieCI6MTE3MS45NTMxMjUsInkiOjY3MH0seyJ4IjoxMTcxLjk1MzEyNSwieSI6NzA3fSx7IngiOjU5My40ODA0Njg3NSwieSI6NzQ0fSx7IngiOjU2MS4wMDkyNTExNDc4NzgsInkiOjc5My4yNTE2NzA4Mzc0MDIzfV0=" marker-end="url(#my-svg_flowchart-v2-pointEnd)"/><path d="M463.063,275.125L496.426,281.604C529.789,288.083,596.516,301.042,629.879,311.021C663.242,321,663.242,328,663.242,331.5L663.242,335" id="L_ROUTES_BUSINESS_0" class="edge-thickness-normal edge-pattern-solid edge-thickness-normal edge-pattern-solid flowchart-link" style=";" data-edge="true" data-et="edge" data-id="L_ROUTES_BUSINESS_0" data-points="W3sieCI6NDYzLjA2MjUsInkiOjI3NS4xMjUxNjc3NjU2NTMyNn0seyJ4Ijo2NjMuMjQyMTg3NSwieSI6MzE0fSx7IngiOjY2My4yNDIxODc1LCJ5IjozMzl9LHsieCI6NjYzLjI0MjE4NzUsInkiOjM3Nn1d" marker-end="url(#my-svg_flowchart-v2-pointEnd)"/><path d="M873.414,769.307L877.306,765.089C881.198,760.871,888.982,752.436,869.385,742.051C849.788,731.667,802.81,719.333,779.321,707C755.832,694.667,755.832,682.333,755.832,665.5C755.832,648.667,755.832,627.333,755.832,606C755.832,584.667,755.832,563.333,755.832,548.5C755.832,533.667,755.832,525.333,755.832,517C755.832,508.667,755.832,500.333,755.832,492.667C755.832,485,755.832,478,755.832,474.5L755.832,471" id="L_POSTGRES_BUSINESS_0" class="edge-thickness-normal edge-pattern-dotted edge-thickness-normal edge-pattern-solid flowchart-link" style=";" data-edge="true" data-et="edge" data-id="L_POSTGRES_BUSINESS_0" data-points="W3sieCI6ODczLjQxNDE4MjA0MDMzOTUsInkiOjc3NS43MTc5OTI5NjQ3MDM3fSx7IngiOjg5Ni43NjU2MjUsInkiOjc0NH0seyJ4Ijo3NTUuODMyMDMxMjUsInkiOjcwN30seyJ4Ijo3NTUuODMyMDMxMjUsInkiOjY3MH0seyJ4Ijo3NTUuODMyMDMxMjUsInkiOjYwNn0seyJ4Ijo3NTUuODMyMDMxMjUsInkiOjU0Mn0seyJ4Ijo3NTUuODMyMDMxMjUsInkiOjUxN30seyJ4Ijo3NTUuODMyMDMxMjUsInkiOjQ5Mn0seyJ4Ijo3NTUuODMyMDMxMjUsInkiOjQ2N30seyJ4Ijo3MDIuMzAzNTI3ODMyMDMxMiwieSI6NDMwfV0=" marker-end="url(#my-svg_flowchart-v2-pointEnd)"/><path d="M635.844,492L635.844,496.167C635.844,500.333,635.844,508.667,635.844,517C635.844,525.333,635.844,533.667,635.844,548.5C635.844,563.333,635.844,584.667,635.844,606C635.844,627.333,635.844,648.667,635.844,665.5C635.844,682.333,635.844,694.667,557.934,707C480.025,719.333,324.206,731.667,246.296,745.375C168.387,759.084,168.387,774.168,168.387,781.71L168.387,789.252" id="L_API_CLOUDWATCH_0" class="edge-thickness-normal edge-pattern-solid edge-thickness-normal edge-pattern-solid flowchart-link" style=";" data-edge="true" data-et="edge" data-id="L_API_CLOUDWATCH_0" data-points="W3sieCI6NjUxLjY4MzQ3MTY3OTY4NzUsInkiOjQzMH0seyJ4Ijo2MzUuODQzNzUsInkiOjQ2N30seyJ4Ijo2MzUuODQzNzUsInkiOjQ5Mn0seyJ4Ijo2MzUuODQzNzUsInkiOjUxN30seyJ4Ijo2MzUuODQzNzUsInkiOjU0Mn0seyJ4Ijo2MzUuODQzNzUsInkiOjYwNn0seyJ4Ijo2MzUuODQzNzUsInkiOjY3MH0seyJ4Ijo2MzUuODQzNzUsInkiOjcwN30seyJ4IjoxNjguMzg2NzE4NzUsInkiOjc0NH0seyJ4IjoxNjguMzg2NzE4NzUsInkiOjc5My4yNTE2NzA4Mzc0MDIzfV0=" marker-end="url(#my-svg_flowchart-v2-pointEnd)"/></g><g class="edgeLabels"><g class="edgeLabel" transform="translate(283.390625, 173)"><g class="label" data-id="L_WEB_ROUTES_0" transform="translate(-22.8359375, -12)"><foreignObject width="45.671875" height="24"><div xmlns="http://www.w3.org/1999/xhtml" class="labelBkg" style="display: table-cell; white-space: nowrap; line-height: 1.5; max-width: 200px; text-align: center;"><span class="edgeLabel"><p>HTTPS</p></span></div></foreignObject></g></g><g class="edgeLabel" transform="translate(508.109375, 173)"><g class="label" data-id="L_ADMIN_ROUTES_0" transform="translate(-56.125, -12)"><foreignObject width="112.25" height="24"><div xmlns="http://www.w3.org/1999/xhtml" class="labelBkg" style="display: table-cell; white-space: nowrap; line-height: 1.5; max-width: 200px; text-align: center;"><span class="edgeLabel"><p>Upload Modules</p></span></div></foreignObject></g></g><g class="edgeLabel"><g class="label" data-id="L_ROUTES_AUTH_0" transform="translate(0, 0)"><foreignObject width="0" height="0"><div xmlns="http://www.w3.org/1999/xhtml" class="labelBkg" style="display: table-cell; white-space: nowrap; line-height: 1.5; max-width: 200px; text-align: center;"><span class="edgeLabel"></span></div></foreignObject></g></g><g class="edgeLabel"><g class="label" data-id="L_ROUTES_MIDDLEWARE_0" transform="translate(0, 0)"><foreignObject width="0" height="0"><div xmlns="http://www.w3.org/1999/xhtml" class="labelBkg" style="display: table-cell; white-space: nowrap; line-height: 1.5; max-width: 200px; text-align: center;"><span class="edgeLabel"></span></div></foreignObject></g></g><g class="edgeLabel"><g class="label" data-id="L_CURRICULUM_POSTGRES_0" transform="translate(0, 0)"><foreignObject width="0" height="0"><div xmlns="http://www.w3.org/1999/xhtml" class="labelBkg" style="display: table-cell; white-space: nowrap; line-height: 1.5; max-width: 200px; text-align: center;"><span class="edgeLabel"></span></div></foreignObject></g></g><g class="edgeLabel"><g class="label" data-id="L_PROGRESS_POSTGRES_0" transform="translate(0, 0)"><foreignObject width="0" height="0"><div xmlns="http://www.w3.org/1999/xhtml" class="labelBkg" style="display: table-cell; white-space: nowrap; line-height: 1.5; max-width: 200px; text-align: center;"><span class="edgeLabel"></span></div></foreignObject></g></g><g class="edgeLabel"><g class="label" data-id="L_QUIZ_RETRIEVAL_0" transform="translate(0, 0)"><foreignObject width="0" height="0"><div xmlns="http://www.w3.org/1999/xhtml" class="labelBkg" style="display: table-cell; white-space: nowrap; line-height: 1.5; max-width: 200px; text-align: center;"><span class="edgeLabel"></span></div></foreignObject></g></g><g class="edgeLabel"><g class="label" data-id="L_QUIZ_ROUTER_0" transform="translate(0, 0)"><foreignObject width="0" height="0"><div xmlns="http://www.w3.org/1999/xhtml" class="labelBkg" style="display: table-cell; white-space: nowrap; line-height: 1.5; max-width: 200px; text-align: center;"><span class="edgeLabel"></span></div></foreignObject></g></g><g class="edgeLabel"><g class="label" data-id="L_COST_REDIS_0" transform="translate(0, 0)"><foreignObject width="0" height="0"><div xmlns="http://www.w3.org/1999/xhtml" class="labelBkg" style="display: table-cell; white-space: nowrap; line-height: 1.5; max-width: 200px; text-align: center;"><span class="edgeLabel"></span></div></foreignObject></g></g><g class="edgeLabel" transform="translate(970.734375, 707)"><g class="label" data-id="L_INDEX_QDRANT_0" transform="translate(-47.515625, -12)"><foreignObject width="95.03125" height="24"><div xmlns="http://www.w3.org/1999/xhtml" class="labelBkg" style="display: table-cell; white-space: nowrap; line-height: 1.5; max-width: 200px; text-align: center;"><span class="edgeLabel"><p>Store Vectors</p></span></div></foreignObject></g></g><g class="edgeLabel" transform="translate(1095.1015625, 707)"><g class="label" data-id="L_INDEX_S3_0" transform="translate(-56.8515625, -12)"><foreignObject width="113.703125" height="24"><div xmlns="http://www.w3.org/1999/xhtml" class="labelBkg" style="display: table-cell; white-space: nowrap; line-height: 1.5; max-width: 200px; text-align: center;"><span class="edgeLabel"><p>Extract Content</p></span></div></foreignObject></g></g><g class="edgeLabel" transform="translate(1241.8828125, 707)"><g class="label" data-id="L_RETRIEVAL_QDRANT_0" transform="translate(-49.9296875, -12)"><foreignObject width="99.859375" height="24"><div xmlns="http://www.w3.org/1999/xhtml" class="labelBkg" style="display: table-cell; white-space: nowrap; line-height: 1.5; max-width: 200px; text-align: center;"><span class="edgeLabel"><p>Query Vectors</p></span></div></foreignObject></g></g><g class="edgeLabel" transform="translate(1357.421875, 707)"><g class="label" data-id="L_RETRIEVAL_REDIS_0" transform="translate(-45.609375, -12)"><foreignObject width="91.21875" height="24"><div xmlns="http://www.w3.org/1999/xhtml" class="labelBkg" style="display: table-cell; white-space: nowrap; line-height: 1.5; max-width: 200px; text-align: center;"><span class="edgeLabel"><p>Check Cache</p></span></div></foreignObject></g></g><g class="edgeLabel" transform="translate(1565.12890625, 707)"><g class="label" data-id="L_RETRIEVAL_ROUTER_0" transform="translate(-61.078125, -12)"><foreignObject width="122.15625" height="24"><div xmlns="http://www.w3.org/1999/xhtml" class="labelBkg" style="display: table-cell; white-space: nowrap; line-height: 1.5; max-width: 200px; text-align: center;"><span class="edgeLabel"><p>Generate Answer</p></span></div></foreignObject></g></g><g class="edgeLabel" transform="translate(1696.13671875, 707)"><g class="label" data-id="L_QDRANT_RETRIEVAL_0" transform="translate(-49.9296875, -12)"><foreignObject width="99.859375" height="24"><div xmlns="http://www.w3.org/1999/xhtml" class="labelBkg" style="display: table-cell; white-space: nowrap; line-height: 1.5; max-width: 200px; text-align: center;"><span class="edgeLabel"><p>Legal Content</p></span></div></foreignObject></g></g><g class="edgeLabel" transform="translate(1804.08984375, 707)"><g class="label" data-id="L_REDIS_RETRIEVAL_0" transform="translate(-38.0234375, -12)"><foreignObject width="76.046875" height="24"><div xmlns="http://www.w3.org/1999/xhtml" class="labelBkg" style="display: table-cell; white-space: nowrap; line-height: 1.5; max-width: 200px; text-align: center;"><span class="edgeLabel"><p>Cache Hits</p></span></div></foreignObject></g></g><g class="edgeLabel" transform="translate(1792.12890625, 957.5033416748047)"><g class="label" data-id="L_ROUTER_GPT4_0" transform="translate(-59.40625, -12)"><foreignObject width="118.8125" height="24"><div xmlns="http://www.w3.org/1999/xhtml" class="labelBkg" style="display: table-cell; white-space: nowrap; line-height: 1.5; max-width: 200px; text-align: center;"><span class="edgeLabel"><p>Primary Provider</p></span></div></foreignObject></g></g><g class="edgeLabel" transform="translate(1994.9609375, 957.5033416748047)"><g class="label" data-id="L_ROUTER_GPT4FULL_0" transform="translate(-29.78125, -12)"><foreignObject width="59.5625" height="24"><div xmlns="http://www.w3.org/1999/xhtml" class="labelBkg" style="display: table-cell; white-space: nowrap; line-height: 1.5; max-width: 200px; text-align: center;"><span class="edgeLabel"><p>Fallback</p></span></div></foreignObject></g></g><g class="edgeLabel"><g class="label" data-id="L_INDEX_S3_2" transform="translate(0, 0)"><foreignObject width="0" height="0"><div xmlns="http://www.w3.org/1999/xhtml" class="labelBkg" style="display: table-cell; white-space: nowrap; line-height: 1.5; max-width: 200px; text-align: center;"><span class="edgeLabel"></span></div></foreignObject></g></g><g class="edgeLabel"><g class="label" data-id="L_ROUTES_BUSINESS_0" transform="translate(0, 0)"><foreignObject width="0" height="0"><div xmlns="http://www.w3.org/1999/xhtml" class="labelBkg" style="display: table-cell; white-space: nowrap; line-height: 1.5; max-width: 200px; text-align: center;"><span class="edgeLabel"></span></div></foreignObject></g></g><g class="edgeLabel" transform="translate(755.83203, 677.07187)"><g class="label" data-id="L_POSTGRES_BUSINESS_0" transform="translate(-34.796875, -12)"><foreignObject width="69.59375" height="24"><div xmlns="http://www.w3.org/1999/xhtml" class="labelBkg" style="display: table-cell; white-space: nowrap; line-height: 1.5; max-width: 200px; text-align: center;"><span class="edgeLabel"><p>User Data</p></span></div></foreignObject></g></g><g class="edgeLabel"><g class="label" data-id="L_API_CLOUDWATCH_0" transform="translate(0, 0)"><foreignObject width="0" height="0"><div xmlns="http://www.w3.org/1999/xhtml" class="labelBkg" style="display: table-cell; white-space: nowrap; line-height: 1.5; max-width: 200px; text-align: center;"><span class="edgeLabel"></span></div></foreignObject></g></g></g><g class="nodes"><g class="node default clientStyle" id="flowchart-WEB-0" transform="translate(283.390625, 72)"><rect class="basic label-container" style="fill:#e1f5ff !important;stroke:#01579b !important;stroke-width:2px !important" x="-85.2578125" y="-39" width="170.515625" height="78"/><g class="label" style="" transform="translate(-55.2578125, -24)"><rect/><foreignObject width="110.515625" height="48"><div xmlns="http://www.w3.org/1999/xhtml" style="display: table-cell; white-space: nowrap; line-height: 1.5; max-width: 200px; text-align: center;"><span class="nodeLabel"><p>Student Web UI<br />(React/Vue)</p></span></div></foreignObject></g></g><g class="node default clientStyle" id="flowchart-ADMIN-1" transform="translate(508.109375, 72)"><rect class="basic label-container" style="fill:#e1f5ff !important;stroke:#01579b !important;stroke-width:2px !important" x="-89.4609375" y="-39" width="178.921875" height="78"/><g class="label" style="" transform="translate(-59.4609375, -24)"><rect/><foreignObject width="118.921875" height="48"><div xmlns="http://www.w3.org/1999/xhtml" style="display: table-cell; white-space: nowrap; line-height: 1.5; max-width: 200px; text-align: center;"><span class="nodeLabel"><p>Instructor Admin<br />(Dashboard)</p></span></div></foreignObject></g></g><g class="node default apiStyle" id="flowchart-AUTH-2" transform="translate(126.1015625, 403)"><rect class="basic label-container" style="fill:#fff3e0 !important;stroke:#e65100 !important;stroke-width:2px !important" x="-83.1015625" y="-39" width="166.203125" height="78"/><g class="label" style="" transform="translate(-53.1015625, -24)"><rect/><foreignObject width="106.203125" height="48"><div xmlns="http://www.w3.org/1999/xhtml" style="display: table-cell; white-space: nowrap; line-height: 1.5; max-width: 200px; text-align: center;"><span class="nodeLabel"><p>Authentication<br />(JWT, passlib)</p></span></div></foreignObject></g></g><g class="node default apiStyle" id="flowchart-ROUTES-3" transform="translate(395.4765625, 262)"><rect class="basic label-container" style="fill:#fff3e0 !important;stroke:#e65100 !important;stroke-width:2px !important" x="-67.5859375" y="-27" width="135.171875" height="54"/><g class="label" style="" transform="translate(-37.5859375, -12)"><rect/><foreignObject width="75.171875" height="24"><div xmlns="http://www.w3.org/1999/xhtml" style="display: table-cell; white-space: nowrap; line-height: 1.5; max-width: 200px; text-align: center;"><span class="nodeLabel"><p>API Routes</p></span></div></foreignObject></g></g><g class="node default apiStyle" id="flowchart-MIDDLEWARE-4" transform="translate(375.3671875, 403)"><rect class="basic label-container" style="fill:#fff3e0 !important;stroke:#e65100 !important;stroke-width:2px !important" x="-116.1640625" y="-39" width="232.328125" height="78"/><g class="label" style="" transform="translate(-86.1640625, -24)"><rect/><foreignObject width="172.328125" height="48"><div xmlns="http://www.w3.org/1999/xhtml" style="display: table-cell; white-space: nowrap; line-height: 1.5; max-width: 200px; text-align: center;"><span class="nodeLabel"><p>Middleware<br />(Logging, Rate Limiting)</p></span></div></foreignObject></g></g><g class="node default apiStyle" id="flowchart-CURRICULUM-5" transform="translate(663.2421875, 403)"><rect class="basic label-container" style="fill:#fff3e0 !important;stroke:#e65100 !important;stroke-width:2px !important" x="-101.7109375" y="-27" width="203.421875" height="54"/><g class="label" style="" transform="translate(-71.7109375, -12)"><rect/><foreignObject width="143.421875" height="24"><div xmlns="http://www.w3.org/1999/xhtml" style="display: table-cell; white-space: nowrap; line-height: 1.5; max-width: 200px; text-align: center;"><span class="nodeLabel"><p>Curriculum Manager</p></span></div></foreignObject></g></g><g class="node default apiStyle" id="flowchart-PROGRESS-6" transform="translate(903.21875, 403)"><rect class="basic label-container" style="fill:#fff3e0 !important;stroke:#e65100 !important;stroke-width:2px !important" x="-88.265625" y="-27" width="176.53125" height="54"/><g class="label" style="" transform="translate(-58.265625, -12)"><rect/><foreignObject width="116.53125" height="24"><div xmlns="http://www.w3.org/1999/xhtml" style="display: table-cell; white-space: nowrap; line-height: 1.5; max-width: 200px; text-align: center;"><span class="nodeLabel"><p>Progress Tracker</p></span></div></foreignObject></g></g><g class="node default apiStyle" id="flowchart-QUIZ-7" transform="translate(1740.34765625, 403)"><rect class="basic label-container" style="fill:#fff3e0 !important;stroke:#e65100 !important;stroke-width:2px !important" x="-105.9375" y="-27" width="211.875" height="54"/><g class="label" style="" transform="translate(-75.9375, -12)"><rect/><foreignObject width="151.875" height="24"><div xmlns="http://www.w3.org/1999/xhtml" style="display: table-cell; white-space: nowrap; line-height: 1.5; max-width: 200px; text-align: center;"><span class="nodeLabel"><p>Adaptive Quiz Engine</p></span></div></foreignObject></g></g><g class="node default apiStyle" id="flowchart-COST-8" transform="translate(2032.65625, 403)"><rect class="basic label-container" style="fill:#fff3e0 !important;stroke:#e65100 !important;stroke-width:2px !important" x="-75.09375" y="-27" width="150.1875" height="54"/><g class="label" style="" transform="translate(-45.09375, -12)"><rect/><foreignObject width="90.1875" height="24"><div xmlns="http://www.w3.org/1999/xhtml" style="display: table-cell; white-space: nowrap; line-height: 1.5; max-width: 200px; text-align: center;"><span class="nodeLabel"><p>Cost Monitor</p></span></div></foreignObject></g></g><g class="node default" id="flowchart-INDEX-9" transform="translate(1111.69921875, 606)"><rect class="basic label-container" style="" x="-91.0703125" y="-39" width="182.140625" height="78"/><g class="label" style="" transform="translate(-61.0703125, -24)"><rect/><foreignObject width="122.140625" height="48"><div xmlns="http://www.w3.org/1999/xhtml" style="display: table-cell; white-space: nowrap; line-height: 1.5; max-width: 200px; text-align: center;"><span class="nodeLabel"><p>Indexing Pipeline<br />(File Extraction)</p></span></div></foreignObject></g></g><g class="node default" id="flowchart-RETRIEVAL-10" transform="translate(1684.609375, 606)"><rect class="basic label-container" style="" x="-93.078125" y="-39" width="186.15625" height="78"/><g class="label" style="" transform="translate(-63.078125, -24)"><rect/><foreignObject width="126.15625" height="48"><div xmlns="http://www.w3.org/1999/xhtml" style="display: table-cell; white-space: nowrap; line-height: 1.5; max-width: 200px; text-align: center;"><span class="nodeLabel"><p>Retrieval Pipeline<br />(RAG)</p></span></div></foreignObject></g></g><g class="node default storageStyle" id="flowchart-POSTGRES-11" transform="translate(815.33203125, 832.2516708374023)"><path d="M0,12.963408762638421 a67.3125,12.963408762638421 0,0,0 134.625,0 a67.3125,12.963408762638421 0,0,0 -134.625,0 l0,99.96340876263842 a67.3125,12.963408762638421 0,0,0 134.625,0 l0,-99.96340876263842" class="basic label-container" style="fill:#f3e5f5 !important;stroke:#4a148c !important;stroke-width:2px !important" transform="translate(-67.3125, -62.945113143957634)"/><g class="label" style="" transform="translate(-59.8125, -26)"><rect/><foreignObject width="119.625" height="72"><div xmlns="http://www.w3.org/1999/xhtml" style="display: table-cell; white-space: nowrap; line-height: 1.5; max-width: 200px; text-align: center;"><span class="nodeLabel"><p>PostgreSQL<br />(Users, Progress,<br />Curriculum)</p></span></div></foreignObject></g></g><g class="node default storageStyle" id="flowchart-QDRANT-12" transform="translate(1185.6953125, 832.2516708374023)"><path d="M0,13.167780867301662 a69.5546875,13.167780867301662 0,0,0 139.109375,0 a69.5546875,13.167780867301662 0,0,0 -139.109375,0 l0,100.16778086730166 a69.5546875,13.167780867301662 0,0,0 139.109375,0 l0,-100.16778086730166" class="basic label-container" style="fill:#f3e5f5 !important;stroke:#4a148c !important;stroke-width:2px !important" transform="translate(-69.5546875, -63.251671300952495)"/><g class="label" style="" transform="translate(-62.0546875, -26)"><rect/><foreignObject width="124.109375" height="72"><div xmlns="http://www.w3.org/1999/xhtml" style="display: table-cell; white-space: nowrap; line-height: 1.5; max-width: 200px; text-align: center;"><span class="nodeLabel"><p>Qdrant Vector DB<br />(Legal Content<br />Embeddings)</p></span></div></foreignObject></g></g><g class="node default storageStyle" id="flowchart-REDIS-13" transform="translate(1577.54296875, 832.2516708374023)"><path d="M0,11.222099751997796 a50.90625,11.222099751997796 0,0,0 101.8125,0 a50.90625,11.222099751997796 0,0,0 -101.8125,0 l0,98.2220997519978 a50.90625,11.222099751997796 0,0,0 101.8125,0 l0,-98.2220997519978" class="basic label-container" style="fill:#f3e5f5 !important;stroke:#4a148c !important;stroke-width:2px !important" transform="translate(-50.90625, -60.3331496279967)"/><g class="label" style="" transform="translate(-43.40625, -26)"><rect/><foreignObject width="86.8125" height="72"><div xmlns="http://www.w3.org/1999/xhtml" style="display: table-cell; white-space: nowrap; line-height: 1.5; max-width: 200px; text-align: center;"><span class="nodeLabel"><p>Redis Cache<br />(QA Pairs,<br />Rate Limits)</p></span></div></foreignObject></g></g><g class="node default llmStyle" id="flowchart-ROUTER-14" transform="translate(1929.7734375, 832.2516708374023)"><rect class="basic label-container" style="fill:#e8f5e9 !important;stroke:#1b5e20 !important;stroke-width:2px !important" x="-69.828125" y="-39" width="139.65625" height="78"/><g class="label" style="" transform="translate(-39.828125, -24)"><rect/><foreignObject width="79.65625" height="48"><div xmlns="http://www.w3.org/1999/xhtml" style="display: table-cell; white-space: nowrap; line-height: 1.5; max-width: 200px; text-align: center;"><span class="nodeLabel"><p>LLM Router<br />(aisuite)</p></span></div></foreignObject></g></g><g class="node default llmStyle" id="flowchart-GPT4-15" transform="translate(1792.12890625, 1033.5033416748047)"><rect class="basic label-container" style="fill:#e8f5e9 !important;stroke:#1b5e20 !important;stroke-width:2px !important" x="-73.6796875" y="-39" width="147.359375" height="78"/><g class="label" style="" transform="translate(-43.6796875, -24)"><rect/><foreignObject width="87.359375" height="48"><div xmlns="http://www.w3.org/1999/xhtml" style="display: table-cell; white-space: nowrap; line-height: 1.5; max-width: 200px; text-align: center;"><span class="nodeLabel"><p>GPT-4o-mini<br />(Primary)</p></span></div></foreignObject></g></g><g class="node default llmStyle" id="flowchart-GPT4FULL-16" transform="translate(1994.9609375, 1033.5033416748047)"><rect class="basic label-container" style="fill:#e8f5e9 !important;stroke:#1b5e20 !important;stroke-width:2px !important" x="-65.65625" y="-39" width="131.3125" height="78"/><g class="label" style="" transform="translate(-35.65625, -24)"><rect/><foreignObject width="71.3125" height="48"><div xmlns="http://www.w3.org/1999/xhtml" style="display: table-cell; white-space: nowrap; line-height: 1.5; max-width: 200px; text-align: center;"><span class="nodeLabel"><p>GPT-4<br />(Fallback)</p></span></div></foreignObject></g></g><g class="node default externalStyle" id="flowchart-S3-17" transform="translate(535.296875, 832.2516708374023)"><rect class="basic label-container" style="fill:#fce4ec !important;stroke:#880e4f !important;stroke-width:2px !important" x="-101.3671875" y="-39" width="202.734375" height="78"/><g class="label" style="" transform="translate(-71.3671875, -24)"><rect/><foreignObject width="142.734375" height="48"><div xmlns="http://www.w3.org/1999/xhtml" style="display: table-cell; white-space: nowrap; line-height: 1.5; max-width: 200px; text-align: center;"><span class="nodeLabel"><p>AWS S3<br />(Document Storage)</p></span></div></foreignObject></g></g><g class="node default externalStyle" id="flowchart-CLOUDWATCH-18" transform="translate(168.38671875, 832.2516708374023)"><rect class="basic label-container" style="fill:#fce4ec !important;stroke:#880e4f !important;stroke-width:2px !important" x="-73.7421875" y="-39" width="147.484375" height="78"/><g class="label" style="" transform="translate(-43.7421875, -24)"><rect/><foreignObject width="87.484375" height="48"><div xmlns="http://www.w3.org/1999/xhtml" style="display: table-cell; white-space: nowrap; line-height: 1.5; max-width: 200px; text-align: center;"><span class="nodeLabel"><p>CloudWatch<br />(Monitoring)</p></span></div></foreignObject></g></g></g></g></g></svg>